<svg width="179" height="68" viewBox="0 0 179 68" fill="none" xmlns="http://www.w3.org/2000/svg">
<path d="M19.348 60H1.26V58.936C1.91333 58.9173 2.436 58.8613 2.828 58.768C3.23867 58.6747 3.556 58.516 3.78 58.292C4.004 58.068 4.15333 57.7507 4.228 57.34C4.30267 56.9293 4.34 56.3973 4.34 55.744V42.696C4.34 42.0427 4.30267 41.52 4.228 41.128C4.172 40.7173 4.04133 40.4 3.836 40.176C3.64933 39.9333 3.36933 39.7747 2.996 39.7C2.62267 39.6067 2.13733 39.5413 1.54 39.504V38.44H10.052V39.504C9.45467 39.5227 8.96933 39.5787 8.596 39.672C8.24133 39.7653 7.96133 39.9333 7.756 40.176C7.56933 40.4187 7.43867 40.7547 7.364 41.184C7.308 41.6133 7.28 42.1827 7.28 42.892V54.96C7.28 55.744 7.35467 56.388 7.504 56.892C7.672 57.3773 7.94267 57.76 8.316 58.04C8.708 58.3013 9.22133 58.488 9.856 58.6C10.4907 58.6933 11.2933 58.74 12.264 58.74C13.328 58.74 14.224 58.684 14.952 58.572C15.68 58.4413 16.2867 58.2267 16.772 57.928C17.276 57.6107 17.668 57.1813 17.948 56.64C18.2467 56.08 18.4987 55.3613 18.704 54.484H19.768L19.348 60ZM26.7278 55.548C26.7278 56.276 26.7558 56.864 26.8118 57.312C26.8864 57.7413 27.0171 58.0867 27.2038 58.348C27.3904 58.5907 27.6518 58.7587 27.9878 58.852C28.3238 58.9453 28.7718 59.0013 29.3318 59.02V60H21.2958V59.02C21.8558 59.0013 22.3131 58.9453 22.6678 58.852C23.0224 58.74 23.2931 58.572 23.4798 58.348C23.6851 58.1053 23.8158 57.7787 23.8718 57.368C23.9464 56.9387 23.9838 56.3973 23.9838 55.744V52.16C23.9838 51.0773 23.9651 50.1907 23.9278 49.5C23.9091 48.7907 23.8624 48.3053 23.7878 48.044C23.6944 47.6147 23.4798 47.3253 23.1438 47.176C22.8078 47.008 22.1731 46.924 21.2398 46.924V45.944L26.7278 44.88V55.548ZM23.5078 39.196C23.5078 38.7107 23.6758 38.3 24.0118 37.964C24.3478 37.628 24.7584 37.46 25.2438 37.46C25.7291 37.46 26.1398 37.628 26.4758 37.964C26.8118 38.3 26.9798 38.7107 26.9798 39.196C26.9798 39.6813 26.8118 40.092 26.4758 40.428C26.1398 40.764 25.7291 40.932 25.2438 40.932C24.7584 40.932 24.3478 40.764 24.0118 40.428C23.6758 40.092 23.5078 39.6813 23.5078 39.196ZM36.2987 46.924V55.492C36.2987 56.1827 36.3361 56.7613 36.4107 57.228C36.5041 57.676 36.6534 58.0307 36.8587 58.292C37.0827 58.5533 37.3814 58.74 37.7547 58.852C38.1281 58.964 38.6134 59.02 39.2107 59.02V60H31.2587V59.02C31.8001 59.02 32.2294 58.9827 32.5467 58.908C32.8641 58.8333 33.1067 58.6747 33.2747 58.432C33.4427 58.1893 33.5454 57.8533 33.5827 57.424C33.6387 56.9947 33.6667 56.4253 33.6667 55.716V46.924H30.5027V45.608H33.6667V43.592C33.6667 41.4453 34.2267 39.7747 35.3467 38.58C36.4854 37.3667 38.1001 36.76 40.1907 36.76C41.3481 36.76 42.2907 36.9373 43.0187 37.292C43.7467 37.6467 44.1107 38.104 44.1107 38.664C44.1107 39.0373 43.9894 39.3547 43.7467 39.616C43.5227 39.8587 43.2334 39.98 42.8787 39.98C42.6547 39.98 42.4121 39.9147 42.1507 39.784C41.8894 39.6347 41.5627 39.392 41.1707 39.056C40.7041 38.664 40.3401 38.412 40.0787 38.3C39.8174 38.1693 39.5094 38.104 39.1547 38.104C38.7067 38.104 38.3054 38.188 37.9507 38.356C37.5961 38.5053 37.2974 38.7853 37.0547 39.196C36.8121 39.588 36.6254 40.1293 36.4947 40.82C36.3641 41.492 36.2987 42.36 36.2987 43.424V45.608H41.1987C41.5907 45.608 42.0014 45.5147 42.4307 45.328C42.8601 45.1227 43.2614 44.852 43.6347 44.516C44.0267 44.18 44.3721 43.8067 44.6707 43.396C44.9694 42.9667 45.2027 42.528 45.3707 42.08H46.1827V45.608H49.9347V46.924H46.1827V55.436C46.1827 56.0893 46.2107 56.64 46.2667 57.088C46.3414 57.536 46.4534 57.9 46.6027 58.18C46.7521 58.4413 46.9481 58.628 47.1907 58.74C47.4334 58.852 47.7414 58.908 48.1147 58.908C48.5814 58.908 48.9734 58.8147 49.2907 58.628C49.6267 58.4227 49.9534 58.0867 50.2707 57.62L50.9707 58.152C50.7094 58.8427 50.2521 59.3747 49.5987 59.748C48.9641 60.1027 48.1707 60.28 47.2187 60.28C45.9867 60.28 45.0441 59.9907 44.3907 59.412C43.7561 58.8147 43.4387 57.9653 43.4387 56.864V46.924H36.2987ZM57.5988 55.548C57.5988 56.276 57.6268 56.864 57.6828 57.312C57.7575 57.7413 57.8882 58.0867 58.0748 58.348C58.2615 58.5907 58.5228 58.7587 58.8588 58.852C59.1948 58.9453 59.6428 59.0013 60.2028 59.02V60H52.1668V59.02C52.7268 59.0013 53.1842 58.9453 53.5388 58.852C53.8935 58.74 54.1642 58.572 54.3508 58.348C54.5562 58.1053 54.6868 57.7787 54.7428 57.368C54.8175 56.9387 54.8548 56.3973 54.8548 55.744V52.16C54.8548 51.0773 54.8362 50.1907 54.7988 49.5C54.7802 48.7907 54.7335 48.3053 54.6588 48.044C54.5655 47.6147 54.3508 47.3253 54.0148 47.176C53.6788 47.008 53.0442 46.924 52.1108 46.924V45.944L57.5988 44.88V55.548ZM54.3788 39.196C54.3788 38.7107 54.5468 38.3 54.8828 37.964C55.2188 37.628 55.6295 37.46 56.1148 37.46C56.6002 37.46 57.0108 37.628 57.3468 37.964C57.6828 38.3 57.8508 38.7107 57.8508 39.196C57.8508 39.6813 57.6828 40.092 57.3468 40.428C57.0108 40.764 56.6002 40.932 56.1148 40.932C55.6295 40.932 55.2188 40.764 54.8828 40.428C54.5468 40.092 54.3788 39.6813 54.3788 39.196ZM66.8058 55.604C66.8058 56.3693 66.8245 56.976 66.8618 57.424C66.8991 57.8533 66.9925 58.1893 67.1418 58.432C67.3098 58.656 67.5431 58.8053 67.8418 58.88C68.1591 58.9547 68.5885 59.0107 69.1298 59.048V60H61.7938V59.048C62.3165 59.0107 62.7271 58.9547 63.0258 58.88C63.3431 58.8053 63.5858 58.656 63.7538 58.432C63.9218 58.208 64.0245 57.8907 64.0618 57.48C64.1178 57.0693 64.1458 56.5093 64.1458 55.8V52.076C64.1458 49.8547 64.0898 48.5013 63.9778 48.016C63.9218 47.7733 63.8471 47.5773 63.7538 47.428C63.6791 47.26 63.5578 47.1387 63.3898 47.064C63.2218 46.9707 63.0071 46.9147 62.7458 46.896C62.4845 46.8587 62.1485 46.84 61.7378 46.84V45.944L66.2178 44.88L66.5538 47.652H66.6658C67.3751 46.7747 68.2058 46.0933 69.1578 45.608C70.1098 45.1227 71.1458 44.88 72.2658 44.88C73.1245 44.88 73.9085 45.02 74.6178 45.3C75.3271 45.58 75.8685 45.9627 76.2418 46.448C76.5591 46.8773 76.7831 47.4373 76.9138 48.128C77.0445 48.8 77.1098 49.7333 77.1098 50.928V55.604C77.1098 56.3693 77.1285 56.976 77.1658 57.424C77.2218 57.8533 77.3245 58.1893 77.4738 58.432C77.6231 58.656 77.8471 58.8053 78.1458 58.88C78.4631 58.9547 78.8738 59.0107 79.3778 59.048V60H72.1258V59.048C72.6485 59.0293 73.0591 58.9827 73.3578 58.908C73.6751 58.8147 73.9085 58.656 74.0578 58.432C74.2258 58.208 74.3285 57.8907 74.3658 57.48C74.4218 57.0507 74.4498 56.4907 74.4498 55.8V52.104C74.4498 51.04 74.3938 50.144 74.2818 49.416C74.1698 48.688 73.9831 48.1 73.7218 47.652C73.4791 47.204 73.1525 46.8867 72.7418 46.7C72.3311 46.4947 71.8365 46.392 71.2578 46.392C70.4178 46.392 69.6431 46.616 68.9338 47.064C68.2431 47.4933 67.7018 48.0907 67.3098 48.856C67.2165 49.0427 67.1325 49.22 67.0578 49.388C67.0018 49.556 66.9551 49.752 66.9178 49.976C66.8805 50.2 66.8525 50.4613 66.8338 50.76C66.8151 51.04 66.8058 51.404 66.8058 51.852V55.604ZM87.7345 53.98C88.5185 53.98 89.1252 53.6253 89.5545 52.916C90.0025 52.2067 90.2265 51.208 90.2265 49.92C90.2265 48.6507 90.0025 47.6707 89.5545 46.98C89.1252 46.2707 88.5092 45.916 87.7065 45.916C86.9038 45.916 86.2598 46.2707 85.7745 46.98C85.3078 47.6893 85.0745 48.66 85.0745 49.892C85.0745 51.124 85.3172 52.1133 85.8025 52.86C86.2878 53.6067 86.9318 53.98 87.7345 53.98ZM86.1945 57.256C86.6425 57.2933 87.0532 57.3307 87.4265 57.368C87.7998 57.4053 88.1638 57.4427 88.5185 57.48C88.8918 57.5173 89.2558 57.564 89.6105 57.62C89.9838 57.676 90.3852 57.732 90.8145 57.788C92.1585 57.9933 93.2318 58.516 94.0345 59.356C94.8558 60.1773 95.2665 61.2133 95.2665 62.464C95.2665 64.032 94.6412 65.2267 93.3905 66.048C92.1585 66.8693 90.3665 67.28 88.0145 67.28C86.9692 67.28 86.0078 67.1867 85.1305 67C84.2718 66.8133 83.5345 66.5427 82.9185 66.188C82.3025 65.852 81.8172 65.4413 81.4625 64.956C81.1265 64.4707 80.9585 63.9387 80.9585 63.36C80.9585 62.968 81.0238 62.604 81.1545 62.268C81.2852 61.932 81.4625 61.6333 81.6865 61.372C81.9105 61.1293 82.1718 60.9333 82.4705 60.784C82.7878 60.6347 83.1145 60.56 83.4505 60.56C84.0852 60.56 84.6545 60.756 85.1585 61.148C84.6545 61.26 84.2438 61.5307 83.9265 61.96C83.6092 62.408 83.4505 62.912 83.4505 63.472C83.4505 64.2933 83.8518 64.928 84.6545 65.376C85.4758 65.824 86.6332 66.048 88.1265 66.048C91.3185 66.048 92.9145 65.068 92.9145 63.108C92.9145 62.3613 92.6625 61.736 92.1585 61.232C91.6545 60.7467 91.0572 60.4573 90.3665 60.364C89.9185 60.308 89.4518 60.2427 88.9665 60.168C88.4998 60.112 88.0332 60.056 87.5665 60C87.1185 59.944 86.6985 59.8973 86.3065 59.86C85.9145 59.8227 85.5972 59.7853 85.3545 59.748C84.3092 59.636 83.5158 59.356 82.9745 58.908C82.4332 58.46 82.1625 57.844 82.1625 57.06C82.1625 56.4067 82.4332 55.828 82.9745 55.324C83.5158 54.82 84.1972 54.5027 85.0185 54.372V54.26C84.6078 54.092 84.2252 53.8587 83.8705 53.56C83.5158 53.2427 83.2078 52.888 82.9465 52.496C82.7038 52.104 82.5078 51.684 82.3585 51.236C82.2092 50.7693 82.1345 50.2933 82.1345 49.808C82.1345 49.0987 82.2652 48.4453 82.5265 47.848C82.8065 47.2507 83.1892 46.7373 83.6745 46.308C84.1785 45.86 84.7665 45.5147 85.4385 45.272C86.1105 45.0107 86.8478 44.88 87.6505 44.88C88.4718 44.88 89.2465 45.0107 89.9745 45.272C90.7025 45.5147 91.3278 45.8787 91.8505 46.364C92.4852 45.8413 93.0452 45.468 93.5305 45.244C94.0158 45.0013 94.4732 44.88 94.9025 44.88C95.5745 44.88 96.1065 45.0387 96.4985 45.356C96.9092 45.6547 97.1145 46.0653 97.1145 46.588C97.1145 46.9053 97.0025 47.1573 96.7785 47.344C96.5732 47.5307 96.3118 47.624 95.9945 47.624C95.7332 47.624 95.5185 47.5773 95.3505 47.484C95.1825 47.3907 95.0238 47.2973 94.8745 47.204C94.7438 47.092 94.6038 46.9893 94.4545 46.896C94.3052 46.8027 94.1185 46.756 93.8945 46.756C93.4465 46.756 92.9892 46.9147 92.5225 47.232C92.9705 47.9227 93.1945 48.7907 93.1945 49.836C93.1945 51.4227 92.6998 52.6733 91.7105 53.588C90.7212 54.484 89.2372 55.0067 87.2585 55.156C86.1198 55.2493 85.3265 55.3707 84.8785 55.52C84.4305 55.6693 84.2065 55.94 84.2065 56.332C84.2065 56.6307 84.3745 56.8547 84.7105 57.004C85.0465 57.1347 85.5412 57.2187 86.1945 57.256ZM105.179 45.608H108.343V43.592C108.343 41.4453 108.903 39.7747 110.023 38.58C111.161 37.3667 112.776 36.76 114.867 36.76C116.024 36.76 116.967 36.9373 117.695 37.292C118.423 37.6467 118.787 38.104 118.787 38.664C118.787 39.0373 118.665 39.3547 118.423 39.616C118.199 39.8587 117.909 39.98 117.555 39.98C117.331 39.98 117.088 39.9147 116.827 39.784C116.584 39.6347 116.257 39.392 115.847 39.056C115.38 38.664 115.016 38.412 114.755 38.3C114.493 38.1693 114.185 38.104 113.831 38.104C112.711 38.104 111.908 38.6733 111.423 39.812C111.255 40.1853 111.133 40.6427 111.059 41.184C111.003 41.7253 110.975 42.472 110.975 43.424V45.608H115.483V46.924H110.975V55.492C110.975 56.1827 111.012 56.752 111.087 57.2C111.18 57.648 111.329 58.012 111.535 58.292C111.759 58.5533 112.057 58.74 112.431 58.852C112.804 58.9453 113.289 59.0013 113.887 59.02V60H105.935V59.02C106.457 59.0013 106.877 58.9547 107.195 58.88C107.512 58.7867 107.755 58.628 107.923 58.404C108.091 58.1613 108.203 57.8347 108.258 57.424C108.315 56.9947 108.343 56.4253 108.343 55.716V46.924H105.179V45.608ZM124.873 44.88C125.937 44.88 126.945 45.076 127.897 45.468C128.849 45.8413 129.68 46.364 130.389 47.036C131.117 47.708 131.687 48.5107 132.097 49.444C132.527 50.3587 132.741 51.3667 132.741 52.468C132.741 53.6067 132.527 54.652 132.097 55.604C131.687 56.556 131.117 57.3773 130.389 58.068C129.68 58.7587 128.849 59.3 127.897 59.692C126.945 60.084 125.937 60.28 124.873 60.28C123.828 60.28 122.829 60.0933 121.877 59.72C120.944 59.328 120.123 58.7867 119.413 58.096C118.704 57.4053 118.144 56.584 117.733 55.632C117.323 54.6613 117.117 53.6067 117.117 52.468C117.117 51.3667 117.323 50.3493 117.733 49.416C118.144 48.4827 118.704 47.68 119.413 47.008C120.123 46.336 120.944 45.8133 121.877 45.44C122.829 45.0667 123.828 44.88 124.873 44.88ZM124.873 46.224C124.183 46.224 123.548 46.3733 122.969 46.672C122.409 46.9707 121.924 47.4 121.513 47.96C121.121 48.5013 120.813 49.164 120.589 49.948C120.384 50.7133 120.281 51.5627 120.281 52.496C120.281 53.4667 120.384 54.344 120.589 55.128C120.813 55.912 121.121 56.584 121.513 57.144C121.924 57.6853 122.409 58.1053 122.969 58.404C123.529 58.7027 124.164 58.852 124.873 58.852C125.583 58.852 126.227 58.7027 126.805 58.404C127.384 58.1053 127.879 57.676 128.289 57.116C128.7 56.556 129.017 55.884 129.241 55.1C129.465 54.316 129.577 53.448 129.577 52.496C129.577 51.5627 129.465 50.7133 129.241 49.948C129.017 49.1827 128.7 48.5293 128.289 47.988C127.879 47.428 127.384 46.9987 126.805 46.7C126.227 46.3827 125.583 46.224 124.873 46.224ZM140.31 55.548C140.31 56.3133 140.328 56.92 140.366 57.368C140.403 57.816 140.496 58.1613 140.646 58.404C140.814 58.628 141.047 58.7773 141.346 58.852C141.644 58.9267 142.064 58.9827 142.606 59.02V60H135.158V59.02C135.699 59.0013 136.128 58.9547 136.446 58.88C136.763 58.7867 137.006 58.628 137.174 58.404C137.342 58.18 137.444 57.8627 137.482 57.452C137.538 57.0227 137.566 56.4533 137.566 55.744V52.468C137.566 51.1987 137.547 50.2093 137.51 49.5C137.491 48.7907 137.398 48.268 137.23 47.932C137.08 47.596 136.838 47.4 136.502 47.344C136.166 47.2693 135.699 47.232 135.102 47.232V46.252L140.002 45.188L140.394 48.66H140.506C140.748 48.1 141.047 47.5867 141.402 47.12C141.775 46.6533 142.176 46.2613 142.606 45.944C143.035 45.608 143.483 45.3467 143.95 45.16C144.416 44.9733 144.892 44.88 145.378 44.88C145.975 44.88 146.442 45.0293 146.778 45.328C147.132 45.608 147.31 45.9907 147.31 46.476C147.31 46.924 147.17 47.2787 146.89 47.54C146.61 47.7827 146.208 47.904 145.686 47.904C145.387 47.904 145.135 47.8667 144.93 47.792C144.724 47.7173 144.538 47.6427 144.37 47.568C144.22 47.4747 144.071 47.3907 143.922 47.316C143.791 47.2413 143.642 47.204 143.474 47.204C142.97 47.204 142.466 47.5307 141.962 48.184C141.458 48.8187 141.066 49.6307 140.786 50.62C140.636 51.1613 140.515 51.7773 140.422 52.468C140.347 53.14 140.31 53.8493 140.31 54.596V55.548ZM161.305 57.676C160.633 58.4973 159.765 59.1413 158.701 59.608C157.637 60.056 156.489 60.28 155.257 60.28C154.267 60.28 153.353 60.1027 152.513 59.748C151.691 59.3747 150.982 58.8613 150.385 58.208C149.787 57.536 149.321 56.7333 148.985 55.8C148.667 54.8667 148.509 53.8307 148.509 52.692C148.509 51.4973 148.695 50.424 149.069 49.472C149.442 48.5013 149.965 47.68 150.637 47.008C151.327 46.3173 152.149 45.7947 153.101 45.44C154.071 45.0667 155.135 44.88 156.293 44.88C157.021 44.88 157.683 44.9453 158.281 45.076C158.878 45.188 159.391 45.356 159.821 45.58C160.269 45.7853 160.614 46.0467 160.857 46.364C161.099 46.6627 161.221 46.9893 161.221 47.344C161.221 47.7173 161.099 48.0067 160.857 48.212C160.614 48.4173 160.278 48.52 159.849 48.52C159.513 48.52 159.233 48.4547 159.009 48.324C158.785 48.1747 158.495 47.8573 158.141 47.372C157.767 46.9427 157.403 46.644 157.049 46.476C156.713 46.2893 156.274 46.196 155.733 46.196C154.407 46.196 153.399 46.7093 152.709 47.736C152.037 48.7627 151.701 50.2747 151.701 52.272C151.701 54.4187 152.074 56.052 152.821 57.172C153.586 58.2733 154.697 58.824 156.153 58.824C156.937 58.824 157.674 58.6747 158.365 58.376C159.055 58.0587 159.755 57.5547 160.465 56.864L161.305 57.676ZM176.764 57.396C175.178 59.3187 173.208 60.28 170.856 60.28C169.755 60.28 168.756 60.1027 167.86 59.748C166.964 59.3747 166.19 58.8613 165.536 58.208C164.902 57.536 164.407 56.7427 164.052 55.828C163.698 54.8947 163.52 53.868 163.52 52.748C163.52 51.6093 163.707 50.5547 164.08 49.584C164.454 48.6133 164.976 47.7827 165.648 47.092C166.339 46.4013 167.151 45.86 168.084 45.468C169.036 45.076 170.072 44.88 171.192 44.88C173.003 44.88 174.403 45.3747 175.392 46.364C176.382 47.3347 176.876 48.7347 176.876 50.564C176.876 50.8253 176.82 50.984 176.708 51.04C176.615 51.096 176.382 51.124 176.008 51.124H166.796C166.759 51.2733 166.731 51.46 166.712 51.684C166.694 51.8893 166.684 52.1227 166.684 52.384C166.684 53.3547 166.796 54.2413 167.02 55.044C167.263 55.828 167.599 56.5 168.028 57.06C168.476 57.62 168.999 58.0587 169.596 58.376C170.212 58.6747 170.894 58.824 171.64 58.824C172.424 58.824 173.152 58.656 173.824 58.32C174.496 57.9653 175.187 57.396 175.896 56.612L176.764 57.396ZM172.144 49.836C172.518 49.836 172.816 49.8267 173.04 49.808C173.264 49.7893 173.432 49.752 173.544 49.696C173.656 49.64 173.731 49.5653 173.768 49.472C173.806 49.36 173.824 49.22 173.824 49.052C173.824 48.1933 173.544 47.512 172.984 47.008C172.443 46.4853 171.696 46.224 170.744 46.224C168.728 46.224 167.478 47.428 166.992 49.836H172.144Z" fill="#4F270F"/>
<path fill-rule="evenodd" clip-rule="evenodd" d="M83.0956 0.481076C83.3532 0.395342 83.571 0.279659 83.7707 0.00233808C84.437 -0.0126309 85.1003 0.0468849 85.764 0.106439C86.1546 0.141482 86.5452 0.176537 86.9368 0.19644C88.1272 0.255882 89.3169 0.303436 90.5083 0.33933C91.8684 0.380318 93.2303 0.394936 94.5924 0.409556C96.4212 0.429186 98.2502 0.448819 100.075 0.532287C102.982 0.665347 105.886 0.851678 108.779 1.15392C109.583 1.23794 110.384 1.3588 111.184 1.47964C111.775 1.56891 112.366 1.65816 112.958 1.73256C113.277 1.77249 113.594 1.81423 113.912 1.85596C115 1.99872 116.087 2.14143 117.183 2.21131C118.287 2.28172 119.325 2.33865 120.432 2.36128L120.466 2.36196C120.859 2.36969 121.172 2.37586 121.362 2.59699C121.493 2.74896 121.47 2.99624 121.448 3.23683C121.427 3.47077 121.406 3.69837 121.527 3.82585L119.876 4.60454C119.876 4.60454 121.881 5.75818 122.818 6.42645C123.765 7.10226 124.664 7.84758 125.512 8.63404C126.29 9.35604 127.016 10.1256 127.703 10.9274C128.268 11.587 129.286 12.9921 129.286 12.9921C129.286 12.9921 130.073 12.9891 130.494 13.0849C131.056 13.2128 132.053 13.5624 132.206 13.6161L132.22 13.6208C132.243 13.6531 132.267 13.6854 132.291 13.7176C132.744 14.3344 133.196 14.9493 133.503 15.6427C133.467 15.5954 133.426 15.5481 133.383 15.5069C133.056 15.1967 132.596 15.0271 132.152 14.9068C131.68 14.7786 131.177 14.7819 130.685 14.7851L130.644 14.7854C130.122 14.7888 129.593 14.8197 129.083 14.9283C128.379 15.0783 127.693 15.3314 127.042 15.6283C126.925 15.6818 126.803 15.7321 126.68 15.7829C126.226 15.9704 125.76 16.1629 125.482 16.5358C125.298 16.7824 125.233 17.1238 125.287 17.4217C125.336 17.6892 125.526 17.91 125.712 18.1259C125.764 18.1865 125.816 18.2468 125.865 18.3076C126.682 19.3365 127.64 20.2585 128.594 21.1765C128.647 21.2276 128.7 21.2787 128.753 21.3298C128.908 21.4793 129.06 21.6348 129.211 21.7905C129.658 22.2499 130.108 22.7115 130.667 23.0303C131.047 23.247 131.488 23.3851 131.927 23.4375C132.353 23.4884 132.814 23.5006 133.21 23.3446C133.414 23.2646 133.624 23.129 133.713 22.9375C133.799 22.7545 133.762 22.5443 133.726 22.3374C133.711 22.2552 133.697 22.1735 133.691 22.0943C133.674 21.8912 133.639 21.6904 133.604 21.4897C133.563 21.2541 133.522 21.0186 133.51 20.7797C133.491 20.3568 133.489 19.9258 133.563 19.5081C133.601 19.2939 133.659 19.0785 133.766 18.8865C133.81 18.8057 133.882 18.7406 133.953 18.6758C134.041 18.5955 134.128 18.5158 134.163 18.4077C134.176 18.3686 134.187 18.3263 134.193 18.2863C134.222 18.626 134.223 18.9669 134.224 19.308C134.225 19.5653 134.226 19.8226 134.238 20.0797C134.252 20.3439 134.262 20.6098 134.272 20.8759C134.298 21.5428 134.324 22.2112 134.396 22.8588C134.412 23.0035 134.535 23.0732 134.665 23.1468C134.749 23.1944 134.836 23.2437 134.899 23.3161C134.928 23.35 134.96 23.3852 134.993 23.4215C135.153 23.599 135.337 23.8021 135.402 24.009C135.583 24.5874 135.628 25.3252 135.671 26.0299C135.681 26.1899 135.691 26.3481 135.702 26.5024C135.803 27.899 135.813 29.2986 135.824 30.6986C135.829 31.4075 135.835 32.1165 135.852 32.8252C135.868 33.492 135.946 33.794 136 34H130.074C128.493 29.815 124.285 26.8234 119.345 26.8234C114.405 26.8234 110.201 29.8151 108.622 34H49.4433C47.7841 29.9652 43.6602 27.1092 38.8336 27.1092C34.0069 27.1092 29.8787 29.9653 28.2175 34H16.3926C16.3706 33.8177 16.3476 33.6357 16.3244 33.4523C16.2772 33.0788 16.2293 32.7 16.1882 32.3028C16.073 31.189 16.0379 30.0639 16.0307 28.9448C16.0292 28.7024 16.0224 28.459 16.0155 28.2152C15.9931 27.4145 15.9706 26.6105 16.1359 25.8298C16.2659 25.2158 16.5498 24.6435 16.8312 24.0762C16.8495 24.0392 16.8679 24.0021 16.8862 23.9651C16.8967 23.944 16.9071 23.9229 16.9176 23.9017C17.2277 23.2748 17.5445 22.6346 17.9967 22.0932C18.492 21.5001 19.1045 20.9932 19.76 20.5641C20.4642 20.1033 21.261 19.7827 22.0484 19.4658L22.0711 19.4567C24.4606 18.4951 26.926 17.7033 29.4169 17.0131C32.8742 16.0552 36.4045 15.3368 39.9364 14.6697C40.0625 14.6459 40.1886 14.6213 40.3146 14.5966C40.9051 14.4812 41.4961 14.3657 42.0974 14.3339C42.4328 14.3163 42.7781 14.3298 43.1104 14.3769C43.2581 14.3978 43.4173 14.4272 43.5818 14.4576C44.0269 14.54 44.511 14.6295 44.9112 14.5769C44.9186 14.576 44.9278 14.573 44.9372 14.5699C44.9465 14.5669 44.9559 14.5639 44.9638 14.5627C44.1013 15.1329 43.0055 15.913 43.0055 15.913C43.0055 15.913 43.9183 16.4292 44.4687 16.6775C45.0188 16.9258 45.6157 16.9706 46.1043 16.656C46.5162 16.3907 46.6423 16.2696 46.8122 16.1065C46.9052 16.0171 47.0114 15.9152 47.1848 15.7701C47.8691 15.1977 48.5951 14.667 49.318 14.1384C49.3623 14.106 49.4066 14.0736 49.4509 14.0412C50.7731 13.0739 52.1 12.1206 53.4727 11.2191C54.6715 10.4317 55.8992 9.68023 57.1492 8.96852C58.367 8.27488 59.6064 7.61712 60.8708 7.00373C62.3552 6.28356 63.8647 5.5986 65.4028 4.98909C67.0197 4.34848 68.6659 3.77235 70.3325 3.26023C72.1721 2.69485 74.026 2.16535 75.9149 1.77418C77.3916 1.46828 79.007 1.17815 80.507 1.00257C81.4883 0.8878 82.2573 0.75954 83.0956 0.481076ZM47.8876 34C46.315 30.7343 42.854 28.4661 38.8334 28.4661C34.8128 28.4661 31.3478 30.7343 29.773 34H32.8924C34.2032 32.218 36.3758 31.0525 38.8334 31.0525C41.2909 31.0525 43.4606 32.218 44.7692 34H47.8876ZM128.536 34C127.03 30.5816 123.481 28.1803 119.344 28.1803C115.207 28.1803 111.658 30.5816 110.152 34H113.209C114.49 32.0578 116.757 30.7667 119.344 30.7667C121.931 30.7667 124.201 32.0578 125.484 34H128.536ZM95.5659 2.76023C94.4012 2.71336 92.0695 2.71016 92.0695 2.71016L90.7638 15.242C90.7638 15.242 97.5204 15.0636 100.901 15.0063C104.012 14.9534 110.235 14.9061 110.235 14.9061C110.235 14.9061 110.235 11.4107 110.212 9.66194C110.209 9.42067 110.207 9.18025 110.204 8.94028C110.187 7.55169 110.171 6.17852 110.115 4.74652C110.104 4.47354 109.712 4.30481 109.432 4.24629C108.263 4.00189 106.973 3.79247 105.733 3.62466C104.029 3.39421 102.315 3.24126 100.601 3.09608C98.9258 2.95433 97.246 2.82767 95.5659 2.76023ZM85.2788 9.06157C85.784 6.96738 86.5845 2.73874 86.5845 2.73874C86.5845 2.73874 84.8085 2.81442 83.9208 2.88186L83.7382 2.89564C82.3197 3.00267 80.9009 3.10973 79.4937 3.31053C77.6166 3.57848 75.7505 3.94999 73.9038 4.36792C72.0744 4.78173 70.252 5.22891 68.4714 5.8039C67.3239 6.1745 65.095 7.097 65.095 7.097L63.1141 14.6917C63.1141 14.6917 63.6342 15.4388 63.767 15.8634C63.899 16.2861 63.887 17.185 63.887 17.185C63.887 17.185 66.2694 17.0108 67.5635 16.8707C70.9966 16.4989 74.4354 16.1617 77.8807 15.9132C79.7401 15.779 83.4631 15.6274 83.4631 15.6274C83.4631 15.6274 84.747 11.2667 85.2788 9.06157ZM115.547 5.8039C114.762 5.52978 113.131 5.1537 113.131 5.1537L114.894 14.6914C114.894 14.6914 117.874 14.25 119.344 13.9269C119.642 13.8613 119.943 13.7992 120.244 13.7369C121.492 13.4788 122.748 13.2193 123.898 12.7052C123.985 12.6662 124.065 12.6327 124.138 12.6025C124.634 12.3949 124.764 12.3404 124.356 11.7193C123.863 10.9699 123.148 10.3743 122.447 9.79046C122.395 9.7475 122.344 9.7046 122.292 9.66171C121.192 8.74218 120.007 7.89444 118.743 7.18982C117.733 6.62672 116.647 6.18754 115.547 5.8039ZM63.0088 10.8168C63.3389 9.72286 63.6691 8.62817 63.9394 7.57552C63.9394 7.57552 61.563 8.6393 60.4201 9.25453C59.3305 9.84118 58.2441 10.4495 57.2462 11.1693C56.7256 11.5451 55.7906 12.4125 55.7906 12.4125C55.7906 12.4125 55.0285 13.9594 54.7327 14.763C54.2953 15.9516 53.6748 18.4068 53.6748 18.4068C53.6748 18.4068 54.9524 18.3277 55.5882 18.2639C56.2274 18.1999 57.2238 18.1139 57.2238 18.1139C57.2238 18.1139 56.9688 16.9262 57.2238 16.2991C57.3994 15.867 57.8308 15.3428 58.2068 15.0488C58.5557 14.776 59.0371 14.4829 59.4374 14.2843C59.8962 14.0566 60.5265 13.8604 60.8706 13.827C61.2713 13.7881 62.1011 13.9699 62.1011 13.9699C62.3664 12.9458 62.6875 11.8817 63.0088 10.8168ZM31.9378 19.1213C31.786 19.0362 31.6131 19.0168 31.435 19.0211C31.2811 19.0249 31.1216 19.0486 30.9628 19.0721C30.8153 19.094 30.6683 19.1158 30.5269 19.1215C29.9213 19.1455 29.3122 19.1931 28.711 19.2644C28.0022 19.3487 27.2979 19.445 26.6026 19.6002C25.933 19.7498 25.2764 19.9578 24.6225 20.165C24.5096 20.2008 24.3969 20.2365 24.2841 20.2719C24.2158 20.2934 24.1475 20.3148 24.0791 20.3362C23.3858 20.5534 22.6892 20.7715 22.0182 21.0435C21.7814 21.1395 21.5582 21.268 21.3353 21.3963C21.006 21.5857 20.6776 21.7747 20.3075 21.8579C20.1939 21.8834 20.0748 21.8666 19.9563 21.8499C19.8192 21.8305 19.683 21.8113 19.5571 21.8579C19.1724 22.0005 18.8933 22.3115 18.6181 22.6182C18.5292 22.7172 18.4407 22.8159 18.3492 22.9082C18.2313 23.0272 18.078 23.1406 17.923 23.2553C17.5505 23.5309 17.1675 23.8144 17.2387 24.2013C17.2599 24.3163 17.3901 24.3563 17.5232 24.3972C17.6023 24.4215 17.6825 24.4461 17.7415 24.4871C18.0296 24.6871 18.3249 24.8968 18.5518 25.1588C18.6145 25.231 18.6521 25.3242 18.6895 25.4167C18.7406 25.5432 18.7911 25.6684 18.9045 25.7374C19.1247 25.8716 19.404 25.8556 19.6775 25.84C19.7742 25.8345 19.8701 25.8291 19.9624 25.8302C20.9543 25.8431 21.9448 25.7735 22.9263 25.6373C23.4538 25.5639 23.9907 25.4868 24.487 25.3014C25.039 25.0951 25.5361 24.7743 26.0271 24.4574L26.0477 24.4441C26.8498 23.9264 27.599 23.3394 28.3481 22.7525C28.6704 22.5 28.9927 22.2475 29.3192 22.0006C29.5616 21.8172 29.8103 21.6408 30.059 21.4644C30.6055 21.0769 31.1516 20.6896 31.6302 20.2287C31.6807 20.18 31.7377 20.1323 31.7954 20.0839C31.9775 19.9313 32.1673 19.7723 32.1853 19.557C32.199 19.3931 32.0866 19.2047 31.9378 19.1213Z" fill="#856355"/>
</svg>
